<?xml version="1.0" encoding="UTF-8" standalone="no"?>
<svg width="63.541142" height="73.019272" viewBox="0 0 63.541142 73.019272" version="1.1" xmlns="http://www.w3.org/2000/svg">
    <path d="M 14.918619,72.015127 C 8.0832377,70.186852 4.1361573,66.473619 1.5660521,59.453695 -0.38223136,54.13217 -0.54002485,41.916744 1.2464449,34.711944 3.0814229,27.31152 7.0622623,19.42797 10.408676,16.567319 c 2.670662,-2.283 7.833391,-4.361424 10.756643,-4.330424 2.105068,0.0225 6.823165,2.372849 8.59462,4.281774 l 1.589337,1.712701 1.821919,-5.484976 c 1.002053,-3.0167242 2.253744,-6.1494497 2.781531,-6.9615997 1.41706,-2.18055 4.97298,-4.144425 7.523957,-4.1554 1.231979,-0.005 3.495661,-0.446525 5.030408,-0.98052502 1.643973,-0.572 3.659362,-0.79735 4.905331,-0.548475 2.993155,0.59785 6.793028,4.68937502 8.576572,9.23482452 1.363888,3.4759512 1.525163,5.0141752 1.55108,14.7934012 0.03039,11.483324 -0.567551,16.1673 -4.278586,33.513999 -2.205377,10.308726 -3.232282,12.559783 -6.316759,13.846883 -3.164812,1.320625 -7.944459,1.9085 -8.480046,1.04305 -0.304417,-0.491925 -1.0346,-0.490525 -2.457085,0.005 -2.681866,0.933675 -4.859769,-0.0775 -6.633417,-3.079625 l -1.362917,-2.306958 -2.102928,2.226858 c -3.446867,3.650075 -9.621083,4.6086 -16.989717,2.637675 z" id="path346" fill="#000000" />
    <path d="m 56.644967,6.6257443 c 0,-0.99265 -3.187018,-3.00235 -4.761148,-3.00235 -2.105592,0 -2.188089,0.158 -1.040436,1.99335 0.583076,0.93245 1.544609,1.31395 3.311616,1.31395 1.369485,0 2.489968,-0.13725 2.489968,-0.30495 z" id="path364" fill="#ffffff" />
    <path d="m 60.148736,15.695019 c -0.775044,-4.969049 -1.182081,-5.457024 -4.551722,-5.457024 -2.525239,0 -2.996615,0.185 -2.665685,1.046274 0.221113,0.575476 0.402025,2.193701 0.402025,3.596125 0,2.381025 0.142486,2.567476 2.15255,2.8166 5.234656,0.648776 5.086222,0.7125 4.662832,-2.001975 z" id="path362" fill="#ffffff" />
    <path d="m 60.618905,25.464119 c 0,-2.8863 -0.184716,-3.3321 -1.490225,-3.5965 -0.819626,-0.165999 -2.278775,-0.467225 -3.242561,-0.66935 -2.000462,-0.419575 -2.552765,0.4343 -2.552765,3.94665 0,2.06335 0.186668,2.262225 2.48371,2.6459 1.366041,0.22825 2.781756,0.515825 3.146034,0.639225 1.483034,0.502325 1.655807,0.19275 1.655807,-2.965925 z" id="path360" fill="#ffffff" />
    <path d="m 59.890562,34.954469 c 0.07237,-2.9973 -0.679032,-3.522375 -5.066983,-3.540775 -2.045856,-0.0075 -2.152998,0.114 -2.161589,2.471425 -0.0053,1.36425 -0.181663,3.1231 -0.392646,3.908525 -0.345984,1.288026 -0.03662,1.484225 3.155082,2.000776 4.025202,0.651449 4.341818,0.308324 4.466136,-4.839951 z" id="path358" fill="#ffffff" />
    <path d="m 57.778865,48.659694 c 0.471403,-2.333275 0.757181,-4.342124 0.635069,-4.464075 -0.272428,-0.272075 -6.68292,-1.489325 -6.868297,-1.304199 -0.07312,0.073 -0.334229,2.094824 -0.58024,4.492875 -0.446976,4.357075 -0.445977,4.360574 1.457077,5.064299 3.690416,1.364701 4.419383,0.849051 5.356391,-3.7889 z" id="path356" fill="#ffffff" />
    <path d="m 55.098491,61.335644 c 0.286912,-1.728049 0.528705,-3.406725 0.537321,-3.730375 0.0085,-0.323649 -1.226383,-0.954699 -2.744453,-1.40235 -2.594492,-0.765049 -2.782743,-0.729749 -3.136995,0.58845 -0.207271,0.7713 -0.380935,2.368876 -0.385909,3.5502 -0.0075,1.793201 0.34637,2.303075 2.143511,3.087976 3.060778,1.336774 3.012217,1.36515 3.586525,-2.093901 z" id="path354" fill="#ffffff" />
    <path d="m 51.611969,68.24527 c 1.077354,-0.78675 0.978139,-0.9247 -1.129565,-1.570726 -2.122546,-0.650574 -2.368998,-0.580374 -3.027267,0.862501 -0.661005,1.448849 -0.573346,1.570749 1.129565,1.570749 1.0154,0 2.377666,-0.38815 3.027267,-0.862524 z" id="path352" fill="#ffffff" />
    <path d="m 21.115571,53.387394 c -0.93655,-0.600125 -3.220957,-18.572849 -2.649634,-20.846199 0.451257,-1.7956 1.754511,-2.6136 2.969384,-1.863751 1.29426,0.79885 2.147491,7.5058 1.950176,15.3297 -0.180811,7.170176 -0.57873,8.463901 -2.269926,7.38025 z" id="path350" fill="#000000" />
    <path d="M 17.012556,68.604769 C 10.855587,67.058842 7.4171239,63.717525 5.4257903,57.345379 3.7229844,51.896491 3.853005,41.469096 5.7119072,34.399985 8.6693714,23.153176 14.079253,16.611876 20.45386,16.574914 c 2.966822,-0.0172 5.150903,1.120775 7.391037,3.850997 1.512913,1.843901 2.368496,2.447197 3.470564,2.447197 1.951698,0 2.908604,-1.174247 4.516955,-5.542882 2.865006,-7.7819912 4.476919,-10.6817051 6.555337,-11.7925913 1.502536,-0.8030832 4.049112,0.3356901 5.311139,2.3750321 1.404898,2.2702042 2.244927,9.8257852 1.809451,16.2749712 -1.009496,14.950142 -3.92776,37.414675 -5.280348,40.647645 -2.420307,5.785049 -5.75354,4.729315 -7.070146,-2.23932 -1.133574,-5.99987 -3.148056,-5.926713 -6.211868,0.225603 -1.074379,2.157413 -2.583293,4.374403 -3.353143,4.926648 -1.633253,1.171601 -7.450051,1.642513 -10.580282,0.856555 z M 23.238663,52.04049 c 0.191706,-1.020551 0.241538,-5.693701 0.110738,-10.38479 -0.26036,-9.337747 -0.779679,-11.421222 -2.846814,-11.421222 -2.499458,0 -2.846794,3.142727 -1.493436,13.512734 1.084542,8.310218 1.604862,10.148814 2.872108,10.148814 0.737695,0 1.102531,-0.498726 1.357404,-1.855536 z" id="path46" fill="#ffffff" />
</svg>