<svg width="100" height="143" xmlns="http://www.w3.org/2000/svg">
  <g>
   <g transform="matrix(1 0 0 1 35.4167 56.5577)">
    <g stroke-width="1" transform="matrix(0.892947 0 0 0.894189 -379.095 215.451)">
     <g stroke-width="1" transform="translate(190.471 -854.345)">
      <path stroke-miterlimit="4" stroke-linejoin="round" stroke-linecap="round" stroke-width="8" stroke="#ffffff" fill="none" d="m246.4951,633.1711l0,-11.03604c0,-5.34582 4.13015,-9.64951 9.26042,-9.64951l0,0c5.13027,0 9.26042,4.30369 9.26042,9.64951l0,13.63898"/>
      <path stroke-miterlimit="4" stroke-linejoin="round" stroke-linecap="round" stroke-width="8" stroke="#ffffff" fill="none" d="m265.01595,635.77404l0,-10.99309c0,-5.34585 4.13014,-9.64954 9.26041,-9.64954l0,0c5.13027,0 9.26042,4.30369 9.26042,9.64954l0,13.59604"/>
      <path stroke-miterlimit="4" stroke-linejoin="round" stroke-linecap="round" stroke-width="8" stroke="#ffffff" fill="none" d="m283.53678,638.37704l0,-10.95023c0,-5.34583 4.13015,-9.64951 9.26042,-9.64951l0,0c5.13027,0 9.26041,4.30368 9.26041,9.64951l0,13.55265"/>
      <path stroke-miterlimit="4" stroke-width="8" stroke="#ffffff" fill="none" d="m302.05762,640.97946l0.57642,28.16059c0.76977,37.60647 -48.27427,48.36205 -73.08064,23.01489c-5.66584,-5.78936 -8.33312,-11.25624 -11.8463,-18.05231c-5.82328,-11.26486 -17.46984,-33.79457 -17.46984,-33.79457c-2.67292,-4.6296 -1.24795,-10.42177 3.195,-12.98694l0,0c4.44294,-2.56511 10.17159,-0.9031 12.84451,3.72655c0,0 11.69754,20.79977 11.69754,20.00465l-0.00002,-23.39427l0,-47.85629c0,-5.34583 4.13015,-9.64954 9.26042,-9.64954l0,0c5.13027,0 9.26041,4.30371 9.26041,9.64954l0,53.36923"/>
     </g>
    </g>
    <path stroke-miterlimit="4" stroke-linejoin="round" stroke-linecap="round" stroke-width="8" stroke="#000" fill="none" d="m-18.73121,-28.09443a21.73453,21.68424 0 0 1 -0.17924,-2.77902a21.73453,21.68424 0 0 1 21.73454,-21.68425a21.73453,21.68424 0 0 1 21.73453,21.68425l0,0a21.73453,21.68424 0 0 1 -0.17924,2.77906" id="svg_2"/>
   </g>
  </g>
</svg>