<?xml version="1.0" encoding="UTF-8"?>
<svg width="380px" height="78px" viewBox="0 0 380 78" version="1.1" xmlns="http://www.w3.org/2000/svg">
    <path d="M354.409286,72.1605 C354.200764,71.8237 351.884866,71.71225 349.237184,71.9115 C333.494182,73.096825 317.613913,61.4382675 311.915724,44.5117675 C310.347477,39.8532925 310.214278,38.6784425 310.507361,32.0906175 C310.696608,27.8384175 311.271108,23.6313925 311.88989,21.9676175 C312.674665,19.8574925 312.764557,18.8262175 312.237269,17.9829925 C311.014998,16.0283675 312.71702,11.4844675 315.83842,8.3689675 C321.180044,3.0374675 329.505049,0.3696425 339.440244,0.8055675 C346.41863,1.1117425 350.699718,2.7362925 354.176307,6.3974175 C358.102332,10.5318925 360.342332,19.7985675 358.779066,25.4388425 C358.381422,26.8735925 358.168744,28.1600175 358.306474,28.2975425 C358.444154,28.4350425 359.936777,28.0797925 361.623279,27.5079175 C365.627582,26.1502175 368.202368,26.1960425 372.616706,27.7036675 C375.885173,28.8198925 376.409707,29.2778925 378.055431,32.4524925 C379.488502,35.2168425 379.876809,36.8722175 379.876809,40.2166925 C379.876809,50.3512925 374.023317,63.5287675 367.82097,67.3570175 C366.14726,68.3900925 355.714991,72.770375 354.928314,72.770375 C354.850462,72.770375 354.616882,72.495925 354.409286,72.160475 L354.409286,72.1605 Z" id="path386" fill="#000000"></path>
    <path d="M275.321526,75.9695 C265.161587,72.072125 262.200071,62.9480925 262.820481,37.4557175 C263.090008,26.3814425 263.386871,23.3222175 264.59267,19.1922675 C267.22831,10.1651925 270.390213,6.4384175 275.35542,6.5068675 C276.778353,6.5268675 278.896944,5.9874925 280.063366,5.3091175 C286.936965,1.3116425 296.294406,3.7751425 299.974135,10.5510175 C302.529621,15.2567175 303.249335,20.8200175 303.316848,36.3901925 C303.382184,51.4523925 302.646774,57.2414675 299.65309,65.2323425 C298.012399,69.6117425 292.595477,75.3008 288.634005,76.805 C285.898109,77.843825 279.094477,77.416825 275.321526,75.9695 L275.321526,75.9695 Z" id="path24" fill="#000000"></path>
    <path d="M210.984453,74.354825 C204.149067,72.52655 200.201986,68.8133175 197.631881,61.7933925 C195.683598,56.4718675 195.525807,44.2564425 197.312276,37.0516425 C199.147257,29.6512175 203.128096,21.7676675 206.47451,18.9070175 C209.145166,16.6240175 214.307901,14.5455925 217.23115,14.5765925 C219.336218,14.5990925 224.054315,16.9494425 225.825773,18.8583675 L227.415108,20.5710675 L229.237026,15.0860925 C230.239082,12.0693675 231.490773,8.9366425 232.018557,8.1244925 C233.435617,5.9439425 236.991537,3.9800675 239.542512,3.9690925 C240.774493,3.9640925 243.038176,3.5225675 244.572922,2.9885675 C246.216895,2.4165675 248.232284,2.1912175 249.478253,2.4400925 C252.471408,3.0379425 256.271281,7.1294675 258.054835,11.6749175 C259.418715,15.1508675 259.579976,16.6890925 259.60591,26.4683175 C259.636449,37.9516425 259.038344,42.6356175 255.327324,59.9823175 C253.121942,70.2910425 252.095037,72.5421 249.01056,73.8292 C245.845748,75.149825 241.066101,75.7377 240.530514,74.87225 C240.226097,74.380325 239.495911,74.381725 238.073427,74.87725 C235.391563,75.810925 233.21366,74.79975 231.440012,71.797625 L230.077098,69.4906675 L227.974167,71.717525 C224.5273,75.3676 218.353087,76.326125 210.984453,74.3552 L210.984453,74.354825 Z" id="path366" fill="#000000"></path>
    <path d="M14.9368508,74.354825 C8.1014698,72.52655 4.15438945,68.8133175 1.58428422,61.7933925 C-0.363999229,56.4718675 -0.521792725,44.2564425 1.26467698,37.0516425 C3.09965501,29.6512175 7.08049443,21.7676675 10.4269081,18.9070175 C13.0975696,16.6240175 18.2602995,14.5455925 21.1835507,14.5765925 C23.2886189,14.5990925 28.0067158,16.9494425 29.7781709,18.8583675 L31.3675082,20.5710675 L33.1894267,15.0860925 C34.1914799,12.0693675 35.4431714,8.9366425 35.9709579,8.1244925 C37.3880179,5.9439425 40.9439376,3.9800675 43.4949153,3.9690925 C44.7268937,3.9640925 46.9905764,3.5225675 48.5253225,2.9885675 C50.1692961,2.4165675 52.1846847,2.1912175 53.430654,2.4400925 C56.423809,3.0379425 60.2236822,7.1294675 62.0072256,11.6749175 C63.3711136,15.1508675 63.5323892,16.6890925 63.5583055,26.4683175 C63.5886952,37.9516425 62.9907546,42.6356175 59.2797199,59.9823175 C57.0743433,70.2910425 56.0474377,72.5421 52.9629607,73.8292 C49.7981491,75.149825 45.0185019,75.7377 44.4829152,74.87225 C44.1784977,74.380325 43.4483145,74.381725 42.02583,74.87725 C39.3439638,75.810925 37.1660606,74.79975 35.3924127,71.797625 L34.0294959,69.4906675 L31.9265681,71.717525 C28.4797007,75.3676 22.3054854,76.326125 14.9368508,74.3552 L14.9368508,74.354825 Z" id="path346" fill="#000000"></path>
    <path d="M93.2048961,70.8245425 C77.9928196,65.6814675 68.4553836,44.0862425 73.2050066,25.5396425 C75.0037624,18.5157425 77.8971347,13.4180925 82.6503674,8.8983925 C85.8701382,5.8368175 87.2837086,4.9628425 89.7174934,4.5289925 C91.3907603,4.2307175 94.101006,3.7001925 95.7402535,3.3500425 C97.3795035,2.9998925 101.10507,2.7033675 104.019291,2.6910675 C110.656383,2.6630675 114.901603,4.4575925 119.47995,9.2264925 C126.110068,16.1325425 129.021712,25.2341925 129.121907,39.3667425 C129.178481,47.3450425 128.972663,49.3140175 127.635404,53.5880925 C124.856945,62.4684675 120.496627,68.2381425 114.578666,70.8651425 C110.901226,72.497575 98.0812872,72.473225 93.2048961,70.8246425 L93.2048961,70.8245425 Z" id="path414" fill="#000000"></path>
    <path d="M158.112547,70.8245425 C142.90047,65.6814675 133.363034,44.0862425 138.112657,25.5396425 C139.911415,18.5157425 142.804785,13.4180925 147.558018,8.8983925 C150.777789,5.8368175 152.191359,4.9628425 154.625144,4.5289925 C156.298411,4.2307175 159.008657,3.7001925 160.647907,3.3500425 C162.287154,2.9998925 166.012723,2.7033675 168.926942,2.6910675 C175.564034,2.6630675 179.809254,4.4575925 184.387601,9.2264925 C191.017719,16.1325425 193.929362,25.2341925 194.029561,39.3667425 C194.086135,47.3450425 193.880316,49.3140175 192.543055,53.5880925 C189.764598,62.4684675 185.404281,68.2381425 179.486317,70.8651425 C175.808876,72.497575 162.98894,72.473225 158.112547,70.8246425 L158.112547,70.8245425 Z" id="path436" fill="#000000"></path>
    <path d="M172.287429,6.5455925 C172.485688,6.2252175 171.214594,5.9725675 169.462774,5.9841425 C166.67109,6.0016425 166.420918,6.1138925 167.437498,6.8844425 C168.631567,7.7896675 171.647964,7.5789175 172.287429,6.5455925 L172.287429,6.5455925 Z" id="path456" fill="#FFFFFF"></path>
    <path d="M182.564028,12.6886425 C181.231228,10.2015425 180.066898,9.7774175 175.898316,10.2606175 C173.70331,10.5150425 171.907396,10.9551925 171.907396,11.2387175 C171.907396,12.4628675 173.900014,13.1846925 177.893703,13.4072175 C180.247539,13.5384675 182.407421,13.7030675 182.693444,13.7731425 C182.97947,13.8431425 182.921242,13.3552175 182.564025,12.6886425 L182.564028,12.6886425 Z" id="path454" fill="#FFFFFF"></path>
    <path d="M187.077315,20.0190925 L185.762563,16.8771675 L180.534849,16.6999175 L175.307134,16.5226675 L176.407213,19.0952175 C177.470849,21.5825925 177.650378,21.6892425 181.827311,22.3148925 C189.061688,23.3985675 188.579588,23.6093675 187.077315,20.0192925 L187.077315,20.0190925 Z" id="path452" fill="#FFFFFF"></path>
    <path d="M190.103833,30.2716925 C189.848057,28.7255425 189.582623,27.3952175 189.513981,27.3154175 C189.153478,26.8963175 179.839488,25.6021425 179.515142,25.9260425 C179.305143,26.1357925 179.476317,27.6680425 179.895659,29.3310425 C180.649826,32.3221925 180.691063,32.3573175 183.733842,32.5995675 C191.26358,33.1990425 190.626591,33.4318175 190.103833,30.2716925 L190.103833,30.2716925 Z" id="path450" fill="#FFFFFF"></path>
    <path d="M190.658177,40.8550425 C190.86725,39.3088675 190.808799,37.8122925 190.528257,37.5293175 C189.977674,36.9739675 181.830215,35.5202675 181.441873,35.9080925 C181.312554,36.0373425 181.430358,37.4508425 181.703557,39.0493925 C182.175258,41.8089175 182.350369,41.9958175 185.167349,42.7461175 C190.03254,44.0419425 190.236734,43.9716175 190.658184,40.8550425 L190.658177,40.8550425 Z" id="path448" fill="#FFFFFF"></path>
    <path d="M189.376163,51.5210425 C190.088704,47.9629925 189.919931,47.7096175 186.098229,46.6000675 C184.067686,46.0105425 182.320425,45.6301675 182.215413,45.7547675 C182.110401,45.8792675 181.8648,47.2316675 181.66962,48.7598425 C181.317045,51.5203675 181.33255,51.5446675 184.062201,52.5110175 C188.217556,53.9820925 188.909114,53.8532425 189.376163,51.5210425 L189.376163,51.5210425 Z" id="path446" fill="#FFFFFF"></path>
    <path d="M185.743919,60.1896675 L187.240225,57.5308425 L184.893669,56.5516675 C181.442218,55.1114175 180.823914,55.3045425 179.694699,58.1754925 L178.670865,60.7785175 L181.084456,61.7794425 C184.303599,63.1144175 184.049106,63.2012425 185.743919,60.1896675 L185.743919,60.1896675 Z" id="path444" fill="#FFFFFF"></path>
    <path d="M166.2943,67.4518175 C166.528606,67.0732175 167.255763,66.9331925 167.910225,67.1406425 C170.01453,67.8076425 174.977984,61.5113175 176.698388,55.9925175 C179.797198,46.0519925 178.0792,30.8248425 172.577077,19.4640675 C168.886209,11.8431675 164.075148,7.9667925 158.288148,7.9511675 C156.880208,7.9486675 151.18694,10.5624425 149.338522,12.0619675 C144.383882,16.0814425 140.66374,26.2546925 140.684079,35.7287175 C140.712241,48.8317675 147.533706,61.8138175 156.818705,66.4346925 C160.344045,68.1891425 165.495793,68.7421425 166.2943,67.4518175 L166.2943,67.4518175 Z" id="path440" fill="#FFFFFF"></path>
    <path d="M155.729315,53.6670175 C154.091565,51.0205425 151.568423,32.1504925 152.31844,28.1577925 C153.111836,23.9341425 156.528178,22.4263425 159.035474,25.1932675 C160.164383,26.4390675 160.279423,27.8111175 160.297191,40.2414425 L160.316717,53.9188425 L158.226325,54.1215925 C157.076612,54.2330925 155.952942,54.0285925 155.729288,53.6671175 L155.729315,53.6670175 Z" id="path442" fill="#000000"></path>
    <path d="M179.472059,66.9927175 C180.939289,66.2434175 181.179428,65.8823175 180.465543,65.4987425 C177.71526,64.0210425 176.863308,64.1859925 174.963283,66.5641175 L173.061745,68.9441175 L175.299444,68.4624925 C176.530178,68.1975925 178.407857,67.5361925 179.472059,66.9927175 L179.472059,66.9927175 Z" id="path438" fill="#FFFFFF"></path>
    <path d="M107.379778,6.5455925 C107.578037,6.2252175 106.30694,5.9725675 104.555123,5.9841425 C101.763439,6.0016425 101.513268,6.1138925 102.529847,6.8844425 C103.723916,7.7896675 106.740314,7.5789175 107.379778,6.5455925 L107.379778,6.5455925 Z" id="path434" fill="#FFFFFF"></path>
    <path d="M117.656374,12.6886425 C116.323577,10.2015425 115.159247,9.7774175 110.990665,10.2606175 C108.795659,10.5150425 106.999745,10.9551925 106.999745,11.2387175 C106.999745,12.4628675 108.992364,13.1846925 112.986052,13.4072175 C115.339888,13.5384675 117.49977,13.7030675 117.785793,13.7731425 C118.071817,13.8431425 118.013591,13.3552175 117.656374,12.6886425 L117.656374,12.6886425 Z" id="path432" fill="#FFFFFF"></path>
    <path d="M122.169664,20.0190925 L120.854913,16.8771675 L115.627198,16.6999175 L110.399481,16.5226675 L111.499559,19.0952175 C112.563198,21.5825925 112.742727,21.6892425 116.91966,22.3148925 C124.154034,23.3985675 123.671938,23.6093675 122.169664,20.0192925 L122.169664,20.0190925 Z" id="path430" fill="#FFFFFF"></path>
    <path d="M125.19618,30.2716925 C124.940406,28.7255425 124.674972,27.3952175 124.60633,27.3154175 C124.245827,26.8963175 114.931838,25.6021425 114.607492,25.9260425 C114.397492,26.1357925 114.568741,27.6680425 114.988008,29.3310425 C115.742175,32.3221925 115.783412,32.3573175 118.826192,32.5995675 C126.355929,33.1990425 125.71894,33.4318175 125.19618,30.2716925 L125.19618,30.2716925 Z" id="path428" fill="#FFFFFF"></path>
    <path d="M125.750526,40.8550425 C125.959599,39.3088675 125.901148,37.8122925 125.620607,37.5293175 C125.070025,36.9739675 116.922564,35.5202675 116.534224,35.9080925 C116.404906,36.0373425 116.522709,37.4508425 116.795909,39.0493925 C117.267609,41.8089175 117.44272,41.9958175 120.259698,42.7461175 C125.124892,44.0419425 125.329086,43.9716175 125.750536,40.8550425 L125.750526,40.8550425 Z" id="path426" fill="#FFFFFF"></path>
    <path d="M124.468512,51.5210425 C125.181053,47.9629925 125.01228,47.7096175 121.190578,46.6000675 C119.160035,46.0105425 117.412774,45.6301675 117.307762,45.7547675 C117.20275,45.8792675 116.957149,47.2316675 116.761969,48.7598425 C116.409394,51.5203675 116.424899,51.5446675 119.15455,52.5110175 C123.309905,53.9820925 124.001463,53.8532425 124.468512,51.5210425 L124.468512,51.5210425 Z" id="path424" fill="#FFFFFF"></path>
    <path d="M120.836268,60.1896675 L122.332574,57.5308425 L119.986018,56.5516675 C116.534565,55.1114175 115.91626,55.3045425 114.787046,58.1754925 L113.763214,60.7785175 L116.176805,61.7794425 C119.395948,63.1144175 119.141456,63.2012425 120.836268,60.1896675 L120.836268,60.1896675 Z" id="path422" fill="#FFFFFF"></path>
    <path d="M101.38665,67.4518175 C101.620956,67.0732175 102.348112,66.9331925 103.002572,67.1406425 C105.106879,67.8076425 110.070333,61.5113175 111.790737,55.9925175 C114.889547,46.0519925 113.17155,30.8248425 107.669427,19.4640675 C103.978558,11.8431675 99.1674977,7.9667925 93.3804979,7.9511675 C91.9725573,7.9486675 86.2792899,10.5624425 84.4308718,12.0619675 C79.4762312,16.0814425 75.7560896,26.2546925 75.7764287,35.7287175 C75.8045904,48.8317675 82.6260531,61.8138175 91.9110545,66.4346925 C95.4363943,68.1891425 100.58814,68.7421425 101.38665,67.4518175 L101.38665,67.4518175 Z" id="path418" fill="#FFFFFF"></path>
    <path d="M90.8216649,53.6670175 C89.1839118,51.0205425 86.6607729,32.1504925 87.410787,28.1577925 C88.2041853,23.9341425 91.6205253,22.4263425 94.1278235,25.1932675 C95.2567323,26.4390675 95.3717699,27.8111175 95.3895406,40.2414425 L95.4090661,53.9188425 L93.3186747,54.1215925 C92.1689612,54.2330925 91.0452918,54.0285925 90.8216373,53.6671175 L90.8216649,53.6670175 Z" id="path420" fill="#000000"></path>
    <path d="M114.564408,66.9927175 C116.031638,66.2434175 116.271777,65.8823175 115.557892,65.4987425 C112.807609,64.0210425 111.955655,64.1859925 110.055629,66.5641175 L108.154094,68.9441175 L110.391793,68.4624925 C111.622527,68.1975925 113.500206,67.5361925 114.564408,66.9927175 L114.564408,66.9927175 Z" id="path416" fill="#FFFFFF"></path>
    <path id="path412" fill="#FFFFFF"></path>
    <path d="M342.642425,6.2153675 L345.104865,5.1447425 L343.135569,4.5794175 C341.901883,4.2252925 340.215181,4.2987175 338.620049,4.7759175 C336.108971,5.5272675 336.095002,5.5495675 337.608879,6.3884425 C339.591642,7.4871425 339.728045,7.4824425 342.642425,6.2154425 L342.642425,6.2153675 Z" id="path410" fill="#FFFFFF"></path>
    <path d="M326.228634,6.6245425 C326.775073,6.2718925 326.924092,5.9833425 326.559817,5.9833425 C326.195541,5.9833425 325.450418,6.2718925 324.904005,6.6245425 C324.357592,6.9772175 324.208572,7.2657425 324.572848,7.2657425 C324.937123,7.2657425 325.682221,6.9772175 326.228634,6.6245425 L326.228634,6.6245425 Z" id="path408" fill="#FFFFFF"></path>
    <path d="M349.366478,11.1395175 L352.735701,10.3628425 L351.343884,8.8832675 C350.083139,7.5430175 349.755035,7.4823675 347.859636,8.2393675 C346.708783,8.6990175 345.212029,9.2713675 344.533519,9.5112925 C343.525052,9.8678675 343.449178,10.1271925 344.117876,10.9318675 C345.102011,12.1161175 345.126042,12.1170675 349.366478,11.1396175 L349.366478,11.1395175 Z" id="path406" fill="#FFFFFF"></path>
    <path d="M323.579351,7.4593925 C323.761589,7.2713925 323.016391,7.5738925 321.923539,8.1312175 C320.830713,8.6886425 319.191473,9.9587925 318.280759,10.9538425 C316.97588,12.3795675 317.326788,12.2371925 319.93657,10.2819925 C321.757973,8.9174675 323.397213,7.6472925 323.579351,7.4593925 L323.579351,7.4593925 Z" id="path404" fill="#FFFFFF"></path>
    <path d="M355.179016,16.9060675 C355.255616,16.8583175 355.139715,16.1372925 354.92143,15.3036175 C354.571423,13.9669425 354.241918,13.8377425 352.132814,14.2102175 C347.331947,15.0580425 347.311846,15.0745175 348.433485,17.2407425 L349.433566,19.1721175 L352.236625,18.0824425 C353.778313,17.4831175 355.102391,16.9537425 355.179016,16.9060675 L355.179016,16.9060675 Z" id="path402" fill="#FFFFFF"></path>
    <path d="M352.953886,28.3773175 C354.540783,27.6552175 355.370867,25.5128675 355.370867,22.1393425 C355.370867,20.6533675 355.318799,20.6419925 352.887149,21.5952925 C350.428765,22.5590675 350.405785,22.6023425 350.632956,25.8415675 C350.759121,27.6414675 350.968695,29.1141425 351.098539,29.1141425 C351.228459,29.1141425 352.063274,28.7825675 352.953886,28.3773175 L352.953886,28.3773175 Z" id="path400" fill="#FFFFFF"></path>
    <path d="M376.43464,40.5810675 C376.668195,37.3891175 375.081899,33.0828925 373.672709,33.0828925 C373.137511,33.0828925 372.242292,33.2581425 371.683387,33.4723425 C370.86184,33.7871675 371.002849,34.1501675 372.419373,35.3670175 C373.912798,36.6499425 374.163951,37.3790175 374.119768,40.3031175 C374.076962,43.1375675 374.256196,43.6983425 375.150989,43.5290175 C375.904598,43.3865175 376.295058,42.4896925 376.43464,40.5810675 L376.43464,40.5810675 Z" id="path398" fill="#FFFFFF"></path>
    <path d="M347.755975,40.6330675 C351.002263,38.9648425 355.689608,36.2875925 358.172299,34.6836425 C361.858711,32.3020175 362.901247,31.9014675 363.858848,32.4987175 C364.777597,33.0717175 365.527075,32.9282675 367.321117,31.8360175 L369.610807,30.4420175 L366.630366,30.4545175 C363.260767,30.4670175 358.968138,32.2040925 357.08961,34.3128425 C355.504241,36.0924675 353.735156,36.1229175 352.520796,34.3913425 C351.269337,32.6069675 350.103465,33.2075175 347.94685,36.7474425 C346.930698,38.4153425 344.792006,40.5543425 343.015337,41.6795925 C338.275699,44.6814675 341.085292,44.0614425 347.755975,40.6334175 L347.755975,40.6330675 Z" id="path396" fill="#FFFFFF"></path>
    <path d="M373.824007,52.5370675 C375.530084,48.0845675 375.606334,46.8048925 374.148455,47.0903925 C373.513677,47.2146425 372.583137,48.6891925 371.926279,50.6115425 C371.304718,52.4305425 370.572112,54.4397425 370.298229,55.0763925 C369.92016,55.9551925 370.114239,56.2339425 371.103831,56.2339425 C372.07595,56.2339425 372.767653,55.2938675 373.824007,52.5370675 L373.824007,52.5370675 Z" id="path394" fill="#FFFFFF"></path>
    <path d="M367.600808,62.7799925 C370.066076,60.6182925 370.543524,59.5412175 369.036507,59.5412175 C368.538482,59.5412175 367.342095,60.7318425 366.377811,62.1870675 C364.268708,65.3699925 364.512376,65.4881425 367.600808,62.7799925 L367.600808,62.7799925 Z" id="path392" fill="#FFFFFF"></path>
    <path d="M353.85291,67.3665675 C357.124256,66.5382675 361.200953,63.2459925 364.017154,59.1581425 C366.391128,55.7121925 369.279649,48.3623675 369.279649,45.7677925 C369.279649,44.7574675 369.599417,43.6114675 369.990227,43.2211675 C370.381037,42.8308675 370.604579,41.5062925 370.48695,40.2776925 C370.290694,38.2272425 370.07286,38.0271925 367.833712,37.8411675 C365.911552,37.6814175 363.506838,38.5755175 356.492581,42.0576175 C348.696603,45.9277675 347.025096,46.5131425 343.036239,46.7700175 C337.566398,47.1222425 331.196082,45.2338925 331.196082,43.2601925 C331.196082,42.4155675 332.206526,41.7910925 334.838862,41.0089675 C341.184321,39.1235925 344.869232,36.5671925 344.311529,34.4373175 C344.114522,33.6852175 344.574622,32.8338175 345.544614,32.1552175 C346.896579,31.2094175 347.085125,30.5527175 347.038789,26.9515425 C346.917881,17.5517925 339.88097,9.2703925 332.014826,9.2703925 C323.743966,9.2703925 316.136284,17.3513925 314.25613,28.1339675 C312.744281,36.8043675 314.60491,44.7963175 320.062359,53.0733675 C323.730924,58.6373175 327.863944,62.2487425 333.948049,65.2066675 C340.883303,68.5783925 346.611857,69.1999925 353.85291,67.3665675 L353.85291,67.3665675 Z" id="path388" fill="#FFFFFF"></path>
    <path d="M328.949799,29.9821675 C326.907796,22.2243675 326.724982,21.0778425 327.419314,20.3843925 C327.808297,19.9959175 328.581268,19.8523175 329.136969,20.0652675 C330.225715,20.4825425 332.050672,26.0118175 332.341702,29.7751925 C332.492149,31.7213675 332.289384,32.1228675 331.067138,32.2968675 C329.876584,32.4663675 329.493459,32.0476175 328.949799,29.9821675 L328.949799,29.9821675 Z" id="path390" fill="#000000"></path>
    <path d="M252.710798,8.9654425 C252.710798,7.9727925 249.52378,5.9630925 247.94965,5.9630925 C245.844059,5.9630925 245.761561,6.1210925 246.909214,7.9564425 C247.49229,8.8888925 248.453823,9.2703925 250.220828,9.2703925 C251.590313,9.2703925 252.710798,9.1331425 252.710798,8.9654425 L252.710798,8.9654425 Z" id="path384" fill="#FFFFFF"></path>
    <path d="M256.214557,18.0347175 C255.43952,13.0656675 255.032487,12.5776925 251.662845,12.5776925 C249.137606,12.5776925 248.666231,12.7626925 248.99716,13.6239675 C249.218274,14.1994425 249.399185,15.8176675 249.399185,17.2200925 C249.399185,19.6011175 249.541696,19.7875675 251.551732,20.0366925 C256.786379,20.6854675 256.63796,20.7491925 256.214557,18.0347175 L256.214557,18.0347175 Z" id="path382" fill="#FFFFFF"></path>
    <path d="M256.684746,27.8038175 C256.684746,24.9175175 256.500005,24.4717175 255.194511,24.2073175 C254.374886,24.0413175 252.915736,23.7400925 251.95195,23.5379675 C249.951488,23.1183925 249.399185,23.9722675 249.399185,27.4846175 C249.399185,29.5479675 249.585854,29.7468425 251.882895,30.1305175 C253.248936,30.3587675 254.664651,30.6463425 255.028929,30.7697425 C256.51197,31.2720675 256.684746,30.9624925 256.684746,27.8038175 L256.684746,27.8038175 Z" id="path380" fill="#FFFFFF"></path>
    <path d="M255.956395,37.2941675 C256.02874,34.2968675 255.277359,33.7717925 250.88941,33.7533925 C248.843555,33.7458925 248.73641,33.8673925 248.727821,36.2248175 C248.722564,37.5890675 248.546159,39.3479175 248.335176,40.1333425 C247.989192,41.4213675 248.298553,41.6175675 251.490257,42.1341175 C255.51547,42.7855675 255.832083,42.4424425 255.956395,37.2941675 L255.956395,37.2941675 Z" id="path378" fill="#FFFFFF"></path>
    <path d="M253.844696,50.9993925 C254.316096,48.6661175 254.601877,46.6572675 254.479765,46.5353175 C254.207337,46.2632425 247.796846,45.0459925 247.611469,45.2311175 C247.538348,45.3041175 247.27724,47.3259425 247.031226,49.7239925 C246.584253,54.0810675 246.585251,54.0845675 248.488303,54.7882925 C252.178721,56.1529925 252.907688,55.6373425 253.844696,50.9993925 L253.844696,50.9993925 Z" id="path376" fill="#FFFFFF"></path>
    <path d="M251.164322,63.6753425 C251.451234,61.9472925 251.693027,60.2686175 251.701643,59.9449675 C251.710154,59.6213175 250.47526,58.9902675 248.95719,58.5426175 C246.362698,57.7775675 246.174445,57.8128675 245.820195,59.1310675 C245.612924,59.9023675 245.43926,61.4999425 245.434286,62.6812675 C245.426776,64.4744675 245.780656,64.9843425 247.577795,65.7692425 C250.638575,67.1060175 250.590014,67.1343925 251.164322,63.6753425 L251.164322,63.6753425 Z" id="path374" fill="#FFFFFF"></path>
    <path d="M247.6778,70.5849675 C248.755154,69.7982175 248.65594,69.6602675 246.548236,69.0142425 C244.425687,68.3636675 244.179238,68.4338675 243.520968,69.8767425 C242.859963,71.3255925 242.947622,71.4474925 244.650533,71.4474925 C245.665934,71.4474925 247.0282,71.0593425 247.6778,70.5849675 L247.6778,70.5849675 Z" id="path372" fill="#FFFFFF"></path>
    <path d="M224.230911,70.1704675 C225.141605,69.5319675 226.485234,67.5489175 227.216749,65.7636925 C229.011479,61.3837175 229.400004,60.8641425 230.880607,60.8641425 C232.160878,60.8641425 232.368311,61.3526425 233.13734,66.1786175 C234.346133,73.764225 239.823214,72.731525 241.364643,64.6273425 C243.342816,54.2268925 245.634175,34.2591175 245.857339,25.4761175 C246.145204,14.1469925 245.192393,9.7596925 242.067739,8.0265175 C238.113757,5.8333175 235.458225,8.3912175 232.502033,17.2405175 C231.584551,19.9869925 230.374473,22.8891175 229.812968,23.6897425 C228.301057,25.8454925 225.815725,25.5821425 224.546926,23.1317675 C222.231821,18.6606925 216.251158,17.2651675 211.315612,20.0443925 C199.75868,26.5521675 195.69109,57.5319175 205.118184,67.2455175 C209.380862,71.63775 219.85242,73.240275 224.230911,70.1704675 L224.230911,70.1704675 Z" id="path368" fill="#FFFFFF"></path>
    <path d="M217.181403,55.7270925 C216.244852,55.1269675 213.960448,37.1542425 214.531766,34.8808925 C214.983028,33.0852925 216.286282,32.2672925 217.501153,33.0171425 C218.795412,33.8159925 219.648644,40.5229425 219.451331,48.3468425 C219.27052,55.5170175 218.872598,56.8107425 217.181403,55.7270925 L217.181403,55.7270925 Z" id="path370" fill="#000000"></path>
    <path d="M56.6631991,8.9654425 C56.6631991,7.9727925 53.476181,5.9630925 51.9020507,5.9630925 C49.7964594,5.9630925 49.7139617,6.1210925 50.8616149,7.9564425 C51.4446911,8.8888925 52.4062239,9.2703925 54.1732309,9.2703925 C55.5427163,9.2703925 56.6631991,9.1331425 56.6631991,8.9654425 L56.6631991,8.9654425 Z" id="path364" fill="#FFFFFF"></path>
    <path d="M60.1669682,18.0347175 C59.3919239,13.0656675 58.9848875,12.5776925 55.615246,12.5776925 C53.0900068,12.5776925 52.6186312,12.7626925 52.9495607,13.6239675 C53.1706744,14.1994425 53.3515858,15.8176675 53.3515858,17.2200925 C53.3515858,19.6011175 53.4940718,19.7875675 55.5041359,20.0366925 C60.7387922,20.6854675 60.5903584,20.7491925 60.1669682,18.0347175 L60.1669682,18.0347175 Z" id="path362" fill="#FFFFFF"></path>
    <path d="M60.637137,27.8038175 C60.637137,24.9175175 60.4524208,24.4717175 59.1469115,24.2073175 C58.3272865,24.0413175 56.8681366,23.7400925 55.9043509,23.5379675 C53.9038893,23.1183925 53.3515858,23.9722675 53.3515858,27.4846175 C53.3515858,29.5479675 53.5382545,29.7468425 55.8352957,30.1305175 C57.2013366,30.3587675 58.6170523,30.6463425 58.9813303,30.7697425 C60.4643639,31.2720675 60.637137,30.9624925 60.637137,27.8038175 L60.637137,27.8038175 Z" id="path360" fill="#FFFFFF"></path>
    <path d="M59.9087936,37.2941675 C59.9811631,34.2968675 59.2297622,33.7717925 54.8418113,33.7533925 C52.7959552,33.7458925 52.6888128,33.8673925 52.6802216,36.2248175 C52.6749647,37.5890675 52.4985594,39.3479175 52.2875765,40.1333425 C51.9415923,41.4213675 52.2509537,41.6175675 55.4426582,42.1341175 C59.4678605,42.7855675 59.7844763,42.4424425 59.9087936,37.2941675 L59.9087936,37.2941675 Z" id="path358" fill="#FFFFFF"></path>
    <path d="M57.7970968,50.9993925 C58.2684998,48.6661175 58.5542778,46.6572675 58.4321659,46.5353175 C58.1597378,46.2632425 51.7492462,45.0459925 51.5638692,45.2311175 C51.4907488,45.3041175 51.2296404,47.3259425 50.9836292,49.7239925 C50.5366532,54.0810675 50.537652,54.0845675 52.4407064,54.7882925 C56.1311219,56.1529925 56.8600886,55.6373425 57.7970968,50.9993925 L57.7970968,50.9993925 Z" id="path356" fill="#FFFFFF"></path>
    <path d="M55.1167227,63.6753425 C55.4036347,61.9472925 55.6454279,60.2686175 55.6540441,59.9449675 C55.6625552,59.6213175 54.4276606,58.9902675 52.909591,58.5426175 C50.315099,57.7775675 50.1268482,57.8128675 49.7725957,59.1310675 C49.5653252,59.9023675 49.3916609,61.4999425 49.3866869,62.6812675 C49.3791771,64.4744675 49.7330566,64.9843425 51.5301978,65.7692425 C54.5909763,67.1060175 54.5424154,67.1343925 55.1167227,63.6753425 L55.1167227,63.6753425 Z" id="path354" fill="#FFFFFF"></path>
    <path d="M51.6302008,70.5849675 C52.7075548,69.7982175 52.6083403,69.6602675 50.5006362,69.0142425 C48.3780902,68.3636675 48.1316385,68.4338675 47.4733691,69.8767425 C46.8123637,71.3255925 46.9000232,71.4474925 48.6029338,71.4474925 C49.6183344,71.4474925 50.9806003,71.0593425 51.6302008,70.5849675 L51.6302008,70.5849675 Z" id="path352" fill="#FFFFFF"></path>
    <path d="M21.1338033,55.7270925 C20.1972531,55.1269675 17.9128459,37.1542425 18.4841692,34.8808925 C18.9354258,33.0852925 20.2386797,32.2672925 21.4535532,33.0171425 C22.7478128,33.8159925 23.6010442,40.5229425 23.4037291,48.3468425 C23.2229181,55.5170175 22.8249986,56.8107425 21.1338033,55.7270925 L21.1338033,55.7270925 Z" id="path350" fill="#000000"></path>
    <path d="M28.1833113,70.1704675 C29.0940052,69.5319675 30.4376343,67.5489175 31.1691493,65.7636925 C32.9638798,61.3837175 33.3524045,60.8641425 34.8330074,60.8641425 C36.1132762,60.8641425 36.3207095,61.3526425 37.089741,66.1786175 C38.2985315,73.764225 43.7756143,72.731525 45.3170441,64.6273425 C47.2952166,54.2268925 49.5865779,34.2591175 49.8097392,25.4761175 C50.097605,14.1469925 49.1447937,9.7596925 46.0201395,8.0265175 C42.0661576,5.8333175 39.4106259,8.3912175 36.4544341,17.2405175 C35.5369514,19.9869925 34.3268741,22.8891175 33.7653686,23.6897425 C32.2534573,25.8454925 29.7681252,25.5821425 28.4993264,23.1317675 C26.1842215,18.6606925 20.2035564,17.2651675 15.2680131,20.0443925 C3.71107822,26.5521675 -0.356509451,57.5319175 9.07058496,67.2455175 C13.3332623,71.63775 23.8048203,73.240275 28.1833113,70.1704675 L28.1833113,70.1704675 Z" id="path348" fill="#000000"></path>
    <path d="M273.792755,11.9309925 L274.011541,9.6306425 L272.572337,10.9313925 C271.780779,11.6468175 270.840476,12.7782925 270.482759,13.4457925 C269.914517,14.5061925 270.068618,14.6324175 271.703177,14.4453925 C273.304643,14.2621425 273.605461,13.9001675 273.792755,11.9309925 L273.792755,11.9309925 Z" id="path344" fill="#FFFFFF"></path>
    <path d="M272.679827,22.4995675 C272.734399,21.0443425 272.808996,19.4816675 272.845293,19.0268925 C272.882091,18.5660175 271.997587,18.1112175 270.846534,17.9993175 C268.896113,17.8095675 268.738933,17.9675675 268.013561,20.8444675 C267.075636,24.5644925 267.384615,25.1453925 270.301322,25.1453925 C272.502095,25.1453925 272.583777,25.0546425 272.679727,22.4995675 L272.679827,22.4995675 Z" id="path342" fill="#FFFFFF"></path>
    <path d="M271.918158,30.4370675 C271.918158,28.5629175 271.770966,28.4526925 269.268874,28.4526925 C266.904713,28.4526925 266.619566,28.6256925 266.619566,30.0603175 C266.619566,31.2015925 267.05188,31.7511175 268.109811,31.9546175 C271.586725,32.6234425 271.918158,32.4913675 271.918158,30.4370675 L271.918158,30.4370675 Z" id="path340" fill="#FFFFFF"></path>
    <path d="M271.918158,39.3667425 C271.918158,35.7881425 271.886617,35.7287175 269.98536,35.7287175 C268.922322,35.7287175 267.581121,35.5479675 267.004919,35.3272175 C266.127223,34.9908675 265.957251,35.5207175 265.957251,38.5926175 C265.957251,42.2339175 265.972271,42.2613675 268.109811,42.5262675 C269.293707,42.6730175 270.634908,42.8406925 271.090252,42.8989175 C271.665078,42.9724175 271.918158,41.8926425 271.918158,39.3667425 L271.918158,39.3667425 Z" id="path338" fill="#FFFFFF"></path>
    <path d="M272.303636,49.4788175 C272.058316,47.9463175 271.796624,46.6478175 271.722252,46.5932675 C271.647905,46.5387675 270.320297,46.3326175 268.772126,46.1352925 C265.977878,45.7791175 265.957326,45.7917675 265.967389,47.8632925 C265.979906,50.5405675 266.558161,51.3974925 268.606535,51.7776925 C272.707839,52.5389425 272.785841,52.4904425 272.303636,49.4788175 L272.303636,49.4788175 Z" id="path336" fill="#FFFFFF"></path>
    <path d="M274.32077,58.9236675 C273.897667,57.4926175 273.407527,56.1927675 273.231573,56.0351175 C273.055593,55.8773675 271.543619,55.6019925 269.871611,55.4229425 L266.831568,55.0973925 L267.359056,57.8153925 C267.64916,59.3103175 267.899512,60.7566675 267.915382,61.0295175 C267.930402,61.3023675 269.552019,61.5255925 271.517134,61.5255925 L275.090024,61.5255925 L274.32077,58.9236675 Z" id="path334" fill="#FFFFFF"></path>
    <path d="M276.891175,69.6666175 C279.53743,70.0954675 279.552149,70.0703425 278.193225,67.4458925 C277.260908,65.6453675 276.90214,65.4943425 273.556947,65.4943425 C271.562794,65.4943425 269.931189,65.6825925 269.931189,65.9123675 C269.931189,66.1423675 270.558258,67.3436675 271.324683,68.5821425 C272.444595,70.3918675 272.900766,70.6825425 273.648417,70.0628675 C274.188347,69.6153175 275.548923,69.4490675 276.891175,69.6666175 L276.891175,69.6666175 Z" id="path332" fill="#FFFFFF"></path>
    <path d="M291.193171,70.6206675 C294.006219,68.7603425 296.71498,63.4801425 298.234263,56.8953925 C299.89408,49.7015925 299.861713,22.7816675 298.1857,16.5490175 C296.203137,9.1762175 290.81728,5.5877675 284.345957,7.3280425 C281.288416,8.1502675 277.216675,11.7781675 277.216675,13.6801925 C277.216675,14.3593175 276.747287,20.4166175 276.173638,27.1408675 C275.569149,34.2262675 275.311213,41.4526175 275.560163,44.3276925 C276.505146,55.2407925 280.46857,66.2084925 284.858301,70.0576925 C287.64972,72.505375 288.260968,72.5597 291.193096,70.6206675 L291.193171,70.6206675 Z" id="path330" fill="#FFFFFF"></path>
    <path id="path328" fill="#FFFFFF"></path>
    <path d="M17.030788,70.9444672 C10.873819,69.3985398 7.43535603,66.0572228 5.4440224,59.6850773 C3.74121652,54.2361886 3.87123714,43.8087942 5.7301393,36.7396833 C8.68760346,25.4928743 14.0974847,18.951574 20.4720917,18.9146117 C23.4389144,18.8974138 25.6229947,20.0353867 27.8631286,22.7656089 C29.3760418,24.6095099 30.2316247,25.2128062 31.333693,25.2128062 C33.2853906,25.2128062 34.242297,24.038559 35.8506483,19.6699244 C38.7156535,11.8879333 40.3275668,8.9882191 42.4059853,7.87733291 C43.9085213,7.07424975 46.4550969,8.21302301 47.7171242,10.2523652 C49.1220225,12.5225695 49.9620513,20.07815 49.5265753,26.5273356 C48.5170792,41.4774777 45.5988153,63.9420114 44.2462272,67.1749815 C41.8259202,72.9600299 38.4926871,71.9042961 37.1760811,64.9356607 C36.0425067,58.9357905 34.0280249,59.0089478 30.9642129,65.1612643 C29.8898343,67.3186767 28.3809201,69.5356668 27.6110697,70.0879117 C25.977817,71.2595132 20.1610191,71.7304252 17.030788,70.9444672 L17.030788,70.9444672 Z M23.2568948,54.3801881 C23.4486009,53.3596373 23.4984334,48.6864871 23.3676333,43.9953982 C23.1072734,34.6576506 22.5879539,32.5741759 20.5208194,32.5741759 C18.0213615,32.5741759 17.6740255,35.7169033 19.0273831,46.0869096 C20.1119251,54.3971281 20.6322453,56.2357242 21.8994911,56.2357242 C22.6371864,56.2357242 23.0020217,55.7369979 23.2568948,54.3801881 L23.2568948,54.3801881 Z" id="path46" fill="#FFFFFF"></path>
</svg>