<?xml version="1.0" encoding="UTF-8"?>
<svg width="153px" height="32px" viewBox="0 0 153 32" version="1.1" xmlns="http://www.w3.org/2000/svg">
    <path fill="#000000" d="M110.783795,30.7878 C106.725125,29.22885 105.542065,25.579237 105.789905,15.382287 C105.897575,10.952577 106.016165,9.728887 106.497855,8.076907 C107.550735,4.466077 108.813845,2.975367 110.797335,3.002747 C111.365765,3.010747 112.212095,2.794997 112.678055,2.523647 C115.423905,0.924657 119.161995,1.910057 120.631965,4.620407 C121.652825,6.502687 121.940335,8.728007 121.967305,14.956077 C121.993405,20.980957 121.699625,23.296587 120.503715,26.492937 C119.848295,28.244697 117.684355,30.52032 116.101835,31.122 C115.008905,31.53753 112.291005,31.36673 110.783795,30.7878 L110.783795,30.7878 Z M113.850485,29.87748 C113.762585,29.78958 113.534365,29.78018 113.343365,29.85658 C113.132295,29.94108 113.194995,30.00374 113.503215,30.01643 C113.782135,30.02793 113.938405,29.96533 113.850485,29.87747 L113.850485,29.87748 Z M117.124165,28.648267 C118.247915,27.904137 119.330005,25.792057 119.936925,23.158157 C120.599985,20.280637 120.587055,9.512667 119.917525,7.019607 C119.125535,4.070487 116.974005,2.635107 114.388855,3.331217 C113.167435,3.660107 111.540865,5.111267 111.540865,5.872077 C111.540865,6.143727 111.353355,8.566647 111.124195,11.256347 C110.882715,14.090507 110.779675,16.981047 110.879125,18.131077 C111.256625,22.496317 112.839925,26.883397 114.593525,28.423077 C115.708635,29.40215 115.952815,29.42388 117.124135,28.648267 L117.124165,28.648267 Z M111.410835,28.266647 C112.467955,28.438187 112.473835,28.428137 111.930975,27.378357 C111.558535,26.658147 111.415215,26.597737 110.078885,26.597737 C109.282265,26.597737 108.630475,26.673037 108.630475,26.764947 C108.630475,26.856947 108.880975,27.337467 109.187145,27.832857 C109.634525,28.556747 109.816755,28.673017 110.115425,28.425147 C110.331115,28.246127 110.874635,28.179627 111.410835,28.266647 L111.410835,28.266647 Z M110.384015,23.969467 C110.214995,23.397047 110.019195,22.877107 109.948905,22.814047 C109.878605,22.750947 109.274605,22.640797 108.606675,22.569177 L107.392245,22.438957 L107.602965,23.526157 C107.718855,24.124127 107.818865,24.702667 107.825205,24.811807 C107.831205,24.920947 108.479005,25.010237 109.264025,25.010237 L110.691315,25.010237 L110.384015,23.969467 Z M109.578215,20.191527 C109.480215,19.578527 109.375675,19.059127 109.345965,19.037307 C109.316265,19.015507 108.785915,18.933047 108.167455,18.854117 C107.051215,18.711647 107.043005,18.716707 107.047025,19.545317 C107.052025,20.616227 107.283025,20.958997 108.101305,21.111077 C109.739685,21.415577 109.770845,21.396177 109.578215,20.191527 L109.578215,20.191527 Z M109.424225,16.146697 C109.424225,14.715257 109.411625,14.691487 108.652115,14.691487 C108.227455,14.691487 107.691675,14.619187 107.461495,14.530887 C107.110875,14.396347 107.042975,14.608287 107.042975,15.837047 C107.042975,17.293567 107.048975,17.304547 107.902875,17.410507 C108.375815,17.469207 108.911595,17.536277 109.093495,17.559567 C109.323125,17.588967 109.424225,17.157057 109.424225,16.146697 L109.424225,16.146697 Z M109.424225,12.574827 C109.424225,11.825167 109.365425,11.781077 108.365895,11.781077 C107.421465,11.781077 107.307555,11.850277 107.307555,12.424127 C107.307555,12.880637 107.480255,13.100447 107.902875,13.181847 C109.291825,13.449377 109.424225,13.396547 109.424225,12.574827 L109.424225,12.574827 Z M109.728495,9.399827 C109.750295,8.817737 109.780095,8.192667 109.794595,8.010757 C109.809295,7.826407 109.455955,7.644487 108.996135,7.599727 C108.216985,7.523827 108.154195,7.587027 107.864425,8.737787 C107.489745,10.225797 107.613175,10.458157 108.778335,10.458157 C109.657495,10.458157 109.690125,10.421857 109.728455,9.399827 L109.728495,9.399827 Z M110.173085,5.172397 L110.260485,4.252257 L109.685555,4.772557 C109.369345,5.058727 108.993715,5.511317 108.850815,5.778317 C108.623815,6.202477 108.685375,6.252967 109.338345,6.178157 C109.978095,6.104857 110.098265,5.960067 110.173085,5.172397 L110.173085,5.172397 Z M6.765896,30.14193 C4.035313,29.41062 2.458542,27.925327 1.431842,25.117357 C0.653546,22.988747 0.590511,18.102577 1.304166,15.220657 C2.037199,12.260487 3.627456,9.107067 4.964274,7.962807 C6.031144,7.049607 8.09354,6.218237 9.261314,6.230637 C10.102242,6.239637 11.987017,7.179777 12.694674,7.943347 L13.329579,8.628427 L14.057395,6.434437 C14.457693,5.227747 14.957716,3.974657 15.168555,3.649797 C15.734639,2.777577 17.15515,1.992027 18.174209,1.987637 C18.666357,1.985637 19.570648,1.809027 20.183745,1.595427 C20.840476,1.366627 21.645579,1.276487 22.1433161,1.376037 C23.3390151,1.615177 24.8569801,3.251787 25.5694661,5.069967 C26.1143091,6.460347 26.1787351,7.075637 26.1890881,10.987327 C26.2012281,15.580657 25.9623641,17.454247 24.4798881,24.392927 C23.5988891,28.516417 23.1886631,29.41684 21.956483,29.93168 C20.692211,30.45993 18.782848,30.69508 18.568893,30.3489 C18.447285,30.15213 18.155593,30.15269 17.587342,30.3509 C16.515996,30.72437 15.645972,30.3199 14.937439,29.11905 L14.392984,28.196267 L13.552911,29.08701 C12.175964,30.54704 9.709502,30.93045 6.765896,30.14208 L6.765896,30.14193 Z M12.057563,28.468187 C12.421365,28.212787 12.958115,27.419567 13.250339,26.705477 C13.967294,24.953487 14.122501,24.745657 14.713969,24.745657 C15.225408,24.745657 15.308273,24.941057 15.615484,26.871447 C16.098369,29.90569 18.286342,29.49261 18.902109,26.250937 C19.692345,22.090757 20.607693,14.103647 20.696841,10.590447 C20.811837,6.058797 20.43121,4.303877 19.18298,3.610607 C17.603452,2.733327 16.542626,3.756487 15.361693,7.296207 C14.995179,8.394797 14.51178,9.555647 14.287471,9.875897 C13.683496,10.738197 12.690661,10.632857 12.183804,9.652707 C11.258971,7.864277 8.869828,7.306067 6.898188,8.417757 C2.281449,11.020867 0.656538,23.412767 4.422453,27.298207 C6.125298,29.0551 10.308453,29.69611 12.057563,28.468187 L12.057563,28.468187 Z M9.241441,22.690837 C8.86731,22.450787 7.95474,15.261697 8.182971,14.352357 C8.363238,13.634117 8.883859,13.306917 9.369174,13.606857 C9.886202,13.926397 10.227049,16.609177 10.148226,19.738737 C10.075996,22.606807 9.917036,23.124297 9.241441,22.690837 L9.241441,22.690837 Z M21.424075,28.633987 C21.854454,28.319287 21.81482,28.264107 20.972839,28.005697 C20.124929,27.745467 20.026477,27.773547 19.763513,28.350697 C19.499456,28.930237 19.534474,28.978997 20.214749,28.978997 C20.620379,28.978997 21.164574,28.823737 21.424075,28.633987 L21.424075,28.633987 Z M22.8168631,25.870137 C22.9314781,25.178917 23.0280691,24.507447 23.0315111,24.377987 C23.0349111,24.248527 22.5415981,23.996107 21.935163,23.817047 C20.898721,23.511027 20.823519,23.525147 20.682003,24.052427 C20.599203,24.360947 20.529828,24.999977 20.527841,25.472507 C20.524841,26.189787 20.666208,26.393737 21.384126,26.707697 C22.6068391,27.242407 22.5874401,27.253757 22.8168631,25.870137 L22.8168631,25.870137 Z M23.8876131,20.799757 C24.0759281,19.866447 24.1900901,19.062907 24.1413091,19.014127 C24.0324801,18.905297 21.471631,18.418397 21.397577,18.492447 C21.368367,18.521647 21.26406,19.330377 21.165784,20.289597 C20.987227,22.032427 20.987626,22.033827 21.747854,22.315317 C23.2220931,22.861197 23.5132991,22.654937 23.8876131,20.799757 L23.8876131,20.799757 Z M24.7311891,15.317667 C24.7600991,14.118747 24.4599311,13.908717 22.7070421,13.901357 C21.889768,13.898357 21.846967,13.946957 21.843535,14.889927 C21.841435,15.435627 21.770965,16.139167 21.686682,16.453337 C21.548469,16.968547 21.672052,17.047027 22.9470671,17.253647 C24.5550461,17.514227 24.6815271,17.376977 24.7311891,15.317667 L24.7311891,15.317667 Z M25.0221461,11.521527 C25.0221461,10.367007 24.9483561,10.188687 24.4268341,10.082927 C24.0994121,10.016527 23.5165141,9.896037 23.1315031,9.815187 C22.3323631,9.647357 22.1117301,9.988907 22.1117301,11.393847 C22.1117301,12.219187 22.1863001,12.298737 23.1039171,12.452207 C23.6496201,12.543507 24.2151671,12.658537 24.3606881,12.707897 C24.9531271,12.908827 25.0221461,12.784997 25.0221461,11.521527 L25.0221461,11.521527 Z M24.8343241,7.613887 C24.5247111,5.626267 24.3621091,5.431077 23.0160121,5.431077 C22.0072351,5.431077 21.818931,5.505077 21.95113,5.849587 C22.03946,6.079777 22.1117301,6.727067 22.1117301,7.288037 C22.1117301,8.240447 22.1686501,8.315027 22.9716261,8.414677 C25.0627551,8.674187 25.0034591,8.699677 24.8343241,7.613887 L24.8343241,7.613887 Z M23.4346461,3.986177 C23.4346461,3.589117 22.1615031,2.785237 21.532673,2.785237 C20.691536,2.785237 20.65858,2.848437 21.117042,3.582577 C21.349968,3.955557 21.734079,4.108157 22.4399591,4.108157 C22.9870381,4.108157 23.4346461,4.053257 23.4346461,3.986177 L23.4346461,3.986177 Z M85.082562,30.14193 C82.351977,29.41062 80.775206,27.925327 79.748506,25.117357 C78.97021,22.988747 78.907176,18.102577 79.620831,15.220657 C80.353865,12.260487 81.944122,9.107067 83.28094,7.962807 C84.347808,7.049607 86.410206,6.218237 87.577979,6.230637 C88.418907,6.239637 90.303682,7.179777 91.01134,7.943347 L91.646244,8.628427 L92.37406,6.434437 C92.774359,5.227747 93.274382,3.974657 93.48522,3.649797 C94.051304,2.777577 95.471815,1.992027 96.490873,1.987637 C96.983022,1.985637 97.887313,1.809027 98.50041,1.595427 C99.157141,1.366627 99.962244,1.276487 100.459981,1.376037 C101.65568,1.615177 103.173645,3.251787 103.886135,5.069967 C104.430975,6.460347 104.495395,7.075637 104.505755,10.987327 C104.517955,15.580657 104.279025,17.454247 102.796555,24.392927 C101.915554,28.516417 101.505328,29.41684 100.273148,29.93168 C99.008876,30.45993 97.099513,30.69508 96.885558,30.3489 C96.76395,30.15213 96.472257,30.15269 95.904006,30.3509 C94.832661,30.72437 93.962637,30.3199 93.254104,29.11905 L92.70965,28.196267 L91.869576,29.08701 C90.492629,30.54704 88.026168,30.93045 85.082562,30.14208 L85.082562,30.14193 Z M90.374228,28.468187 C90.73803,28.212787 91.27478,27.419567 91.567004,26.705477 C92.283959,24.953487 92.439166,24.745657 93.030634,24.745657 C93.542074,24.745657 93.624939,24.941057 93.932149,26.871447 C94.415035,29.90569 96.603007,29.49261 97.218774,26.250937 C98.00901,22.090757 98.924357,14.103647 99.013506,10.590447 C99.128502,6.058797 98.747875,4.303877 97.499645,3.610607 C95.920117,2.733327 94.859291,3.756487 93.678358,7.296207 C93.311844,8.394797 92.828445,9.555647 92.604136,9.875897 C92.000161,10.738197 91.007326,10.632857 90.500469,9.652707 C89.575636,7.864277 87.186494,7.306067 85.214853,8.417757 C80.598115,11.020867 78.973203,23.412767 82.739118,27.298207 C84.441963,29.0551 88.625118,29.69611 90.374228,28.468187 L90.374228,28.468187 Z M87.558106,22.690837 C87.183975,22.450787 86.271406,15.261697 86.499635,14.352357 C86.679904,13.634117 87.200525,13.306917 87.685839,13.606857 C88.202867,13.926397 88.543714,16.609177 88.464892,19.738737 C88.392662,22.606807 88.233701,23.124297 87.558106,22.690837 L87.558106,22.690837 Z M99.74074,28.633987 C100.171119,28.319287 100.131485,28.264107 99.289504,28.005697 C98.441593,27.745467 98.343142,27.773547 98.080178,28.350697 C97.816121,28.930237 97.851139,28.978997 98.531414,28.978997 C98.937044,28.978997 99.481239,28.823737 99.74074,28.633987 L99.74074,28.633987 Z M101.133528,25.870137 C101.248143,25.178917 101.344734,24.507447 101.348176,24.377987 C101.351576,24.248527 100.858263,23.996107 100.251828,23.817047 C99.215386,23.511027 99.140183,23.525147 98.998668,24.052427 C98.915868,24.360947 98.846493,24.999977 98.844506,25.472507 C98.841506,26.189787 98.982873,26.393737 99.70079,26.707697 C100.923504,27.242407 100.904105,27.253757 101.133528,25.870137 L101.133528,25.870137 Z M102.204278,20.799757 C102.392592,19.866447 102.506755,19.062907 102.457974,19.014127 C102.349145,18.905297 99.788296,18.418397 99.714242,18.492447 C99.685032,18.521647 99.580725,19.330377 99.482448,20.289597 C99.303892,22.032427 99.304291,22.033827 100.064518,22.315317 C101.538758,22.861197 101.829964,22.654937 102.204278,20.799757 L102.204278,20.799757 Z M103.047855,15.317667 C103.076755,14.118747 102.776595,13.908717 101.023707,13.901357 C100.206433,13.898357 100.163631,13.946957 100.1602,14.889927 C100.1581,15.435627 100.08763,16.139167 100.003347,16.453337 C99.865134,16.968547 99.988717,17.047027 101.263732,17.253647 C102.871715,17.514227 102.998195,17.376977 103.047855,15.317667 L103.047855,15.317667 Z M103.338815,11.521527 C103.338815,10.367007 103.265015,10.188687 102.743499,10.082927 C102.416077,10.016527 101.833179,9.896037 101.448168,9.815187 C100.649028,9.647357 100.428395,9.988907 100.428395,11.393847 C100.428395,12.219187 100.502965,12.298737 101.420582,12.452207 C101.966285,12.543507 102.531832,12.658537 102.677353,12.707897 C103.269795,12.908827 103.338815,12.784997 103.338815,11.521527 L103.338815,11.521527 Z M103.150985,7.613887 C102.841375,5.626267 102.678774,5.431077 101.332677,5.431077 C100.3239,5.431077 100.135596,5.505077 100.267795,5.849587 C100.356125,6.079777 100.428395,6.727067 100.428395,7.288037 C100.428395,8.240447 100.485325,8.315027 101.28829,8.414677 C103.379415,8.674187 103.320125,8.699677 103.150985,7.613887 L103.150985,7.613887 Z M101.751311,3.986177 C101.751311,3.589117 100.478168,2.785237 99.849338,2.785237 C99.008201,2.785237 98.975245,2.848437 99.433707,3.582577 C99.666633,3.955557 100.050744,4.108157 100.756623,4.108157 C101.303702,4.108157 101.751311,4.053257 101.751311,3.986177 L101.751311,3.986177 Z M142.3776,29.2642 C142.2943,29.12948 141.36915,29.0849 140.31146,29.1646 C134.02248,29.63873 127.678665,24.975307 125.402365,18.204707 C124.775885,16.341317 124.722675,15.871377 124.839755,13.236247 C124.915355,11.535367 125.144855,9.852557 125.392045,9.187047 C125.705545,8.342997 125.741455,7.930487 125.530815,7.593197 C125.042545,6.811347 125.722465,4.993787 126.969395,3.747587 C129.103255,1.614987 132.42891,0.547857 136.3978,0.722227 C139.18551,0.844697 140.89571,1.494517 142.28453,2.958967 C143.85289,4.612757 144.74772,8.319427 144.12323,10.575537 C143.96438,11.149437 143.87942,11.664007 143.93444,11.719017 C143.98944,11.774017 144.58571,11.631917 145.25943,11.403167 C146.85906,10.860087 147.88763,10.878417 149.65106,11.481467 C150.95674,11.927957 151.16628,12.111157 151.82371,13.380997 C152.39619,14.486737 152.55131,15.148887 152.55131,16.486677 C152.55131,20.540517 150.21297,25.811507 147.73527,27.342807 C147.06666,27.756037 142.8992,29.50815 142.58494,29.50815 C142.55384,29.50815 142.46053,29.39837 142.3776,29.26419 L142.3776,29.2642 Z M142.15534,27.346627 C143.46217,27.015307 145.09072,25.698397 146.21573,24.063257 C147.16408,22.684877 148.31798,19.744947 148.31798,18.707117 C148.31798,18.302987 148.44572,17.844587 148.60184,17.688467 C148.75796,17.532347 148.84726,17.002517 148.80027,16.511077 C148.72187,15.690897 148.63485,15.610877 147.74036,15.536467 C146.9725,15.472567 146.01187,15.830207 143.20983,17.223047 C140.09551,18.771107 139.42778,19.005257 137.83432,19.108007 C135.64924,19.248897 133.10444,18.493557 133.10444,17.704077 C133.10444,17.366227 133.50809,17.116437 134.55965,16.803587 C137.09452,16.049437 138.56656,15.026877 138.34377,14.174927 C138.26507,13.874087 138.44887,13.533527 138.83636,13.262087 C139.37644,12.883767 139.45176,12.621087 139.43325,11.180617 C139.38495,7.420717 136.57386,4.108157 133.43151,4.108157 C130.127485,4.108157 127.088385,7.340557 126.337305,11.653587 C125.733355,15.121747 126.476635,18.318527 128.656765,21.629347 C130.122275,23.854927 131.773325,25.299497 134.20379,26.482667 C136.97427,27.831357 139.2627,28.079997 142.15534,27.346627 L142.15534,27.346627 Z M132.2071,12.392867 C131.391365,9.289747 131.318335,8.831137 131.595705,8.553757 C131.751095,8.398367 132.05988,8.340927 132.28187,8.426107 C132.7168,8.593017 133.44583,10.804727 133.56209,12.310077 C133.62219,13.088547 133.54119,13.249147 133.05293,13.318747 C132.57733,13.386547 132.42428,13.219047 132.2071,12.392867 L132.2071,12.392867 Z M147.64732,25.511997 C148.63214,24.647317 148.82287,24.216487 148.22085,24.216487 C148.0219,24.216487 147.54397,24.692737 147.15876,25.274827 C146.31622,26.547997 146.41356,26.595257 147.64732,25.511997 L147.64732,25.511997 Z M150.13335,21.414827 C150.81489,19.633827 150.84535,19.121957 150.26296,19.236157 C150.00938,19.285857 149.63765,19.875677 149.37525,20.644617 C149.12695,21.372217 148.83429,22.175897 148.72488,22.430557 C148.57385,22.782077 148.65138,22.893577 149.0467,22.893577 C149.43504,22.893577 149.71136,22.517547 150.13335,21.414827 L150.13335,21.414827 Z M139.71975,16.653227 C141.01657,15.985937 142.88906,14.915037 143.88084,14.273457 C145.35348,13.320807 145.76995,13.160587 146.15249,13.399487 C146.51951,13.628687 146.81891,13.571307 147.53559,13.134407 L148.45027,12.576807 L147.25965,12.581807 C145.91357,12.586807 144.19876,13.281637 143.44833,14.125137 C142.81501,14.836987 142.1083,14.849167 141.62319,14.156537 C141.12326,13.442787 140.65752,13.683007 139.796,15.098977 C139.39007,15.766137 138.53571,16.621737 137.82597,17.071837 C135.93259,18.272587 137.05496,18.024577 139.71975,16.653367 L139.71975,16.653227 Z M151.17624,16.632427 C151.26954,15.355647 150.63585,13.633157 150.07291,13.633157 C149.85911,13.633157 149.50149,13.703257 149.27822,13.788937 C148.95003,13.914867 149.00636,14.060067 149.57223,14.546807 C150.16882,15.059977 150.26915,15.351607 150.2515,16.521247 C150.2344,17.655027 150.306,17.879337 150.66345,17.811607 C150.9645,17.754607 151.12048,17.395877 151.17624,16.632427 L151.17624,16.632427 Z M141.7962,11.750927 C142.43013,11.462087 142.76173,10.605147 142.76173,9.255737 C142.76173,8.661347 142.74093,8.656797 141.76954,9.038117 C140.78747,9.423627 140.77829,9.440937 140.86904,10.736627 C140.91944,11.456587 141.00316,12.045657 141.05503,12.045657 C141.10693,12.045657 141.44042,11.913027 141.7962,11.750927 L141.7962,11.750927 Z M142.68509,7.162427 C142.71569,7.143327 142.66939,6.854917 142.58219,6.521447 C142.44237,5.986777 142.31074,5.935097 141.4682,6.084087 C139.55036,6.423217 139.54233,6.429807 139.9904,7.296297 L140.38991,8.068847 L141.50967,7.632977 C142.12554,7.393247 142.65448,7.181497 142.68509,7.162427 L142.68509,7.162427 Z M130.061725,3.383757 C130.134525,3.308557 129.836835,3.429557 129.400265,3.652487 C128.963705,3.875457 128.308865,4.383517 127.945055,4.781537 C127.423785,5.351827 127.563965,5.294877 128.606515,4.512797 C129.334125,3.966987 129.988965,3.458917 130.061725,3.383757 L130.061725,3.383757 Z M140.36311,4.855807 L141.70904,4.545137 L141.15304,3.953307 C140.6494,3.417207 140.51833,3.392947 139.76116,3.695747 C139.30142,3.879607 138.7035,4.108547 138.43245,4.204517 C138.02959,4.347147 137.99928,4.450877 138.26641,4.772747 C138.65955,5.246447 138.66915,5.246827 140.36311,4.855847 L140.36311,4.855807 Z M131.120055,3.049817 C131.338345,2.908757 131.397875,2.793337 131.252355,2.793337 C131.106835,2.793337 130.809175,2.908757 130.590895,3.049817 C130.372615,3.190887 130.313085,3.306297 130.458605,3.306297 C130.604125,3.306297 130.901775,3.190887 131.120055,3.049817 L131.120055,3.049817 Z M137.677,2.886147 L138.66069,2.457897 L137.874,2.231767 C137.38117,2.090117 136.70737,2.119487 136.07015,2.310367 C135.06703,2.610907 135.06145,2.619827 135.66621,2.955377 C136.45828,3.394857 136.51277,3.392977 137.677,2.886177 L137.677,2.886147 Z M132.37132,2.625387 C132.28342,2.537487 132.0552,2.528087 131.864205,2.604487 C131.653135,2.688987 131.715825,2.751637 132.02406,2.764337 C132.30297,2.775837 132.45924,2.713237 132.37132,2.625377 L132.37132,2.625387 Z M38.0322431,28.729817 C31.9553561,26.672587 28.1453621,18.034497 30.0427311,10.615857 C30.7612941,7.806297 31.9171321,5.767237 33.8159431,3.959357 C35.1021701,2.734727 35.6668601,2.385137 36.6391031,2.211597 C37.3075361,2.092287 38.3902191,1.880077 39.0450621,1.740017 C39.6999061,1.599957 41.1881871,1.481347 42.352354,1.476427 C45.003725,1.465227 46.699596,2.183037 48.528544,4.090597 C51.177129,6.853017 52.340266,10.493677 52.380292,16.146697 C52.402892,19.338017 52.320672,20.125607 51.786467,21.835237 C50.676534,25.387387 48.934684,27.695257 46.57059,28.746057 C45.101534,29.39903 39.9802531,29.38929 38.0322431,28.729857 L38.0322431,28.729817 Z M46.564894,27.197087 C47.15102,26.897367 47.24695,26.752927 46.961769,26.599497 C45.863092,26.008417 45.522755,26.074397 44.763737,27.025647 L44.004116,27.977647 L44.898027,27.784997 C45.389678,27.679037 46.139769,27.414477 46.564894,27.197087 L46.564894,27.197087 Z M41.3006721,27.380727 C41.3942721,27.229287 41.6847551,27.173277 41.9461971,27.256257 C42.786821,27.523057 44.769611,25.004527 45.456874,22.797007 C46.69478,18.820797 46.008478,12.729937 43.810502,8.185627 C42.336082,5.137267 40.4141701,3.586717 38.1023921,3.580467 C37.5399511,3.579467 35.2656171,4.624977 34.5272151,5.224787 C32.5479461,6.832577 31.0618321,10.901877 31.0699571,14.691487 C31.0812071,19.932707 33.8062301,25.125527 37.5153821,26.973877 C38.9236771,27.675657 40.9816851,27.896857 41.3006721,27.380727 L41.3006721,27.380727 Z M37.0801951,21.866807 C36.4259491,20.808217 35.4180111,13.260197 35.7176251,11.663117 C36.0345701,9.973657 37.3993221,9.370537 38.4009321,10.477307 C38.8519061,10.975627 38.8978611,11.524447 38.9049601,16.496577 L38.9127601,21.967537 L38.0776951,22.048637 C37.6184101,22.093237 37.1695291,22.011437 37.0801841,21.866847 L37.0801951,21.866807 Z M49.070363,24.475867 L49.668104,23.412337 L48.730707,23.020667 C47.351928,22.444567 47.104929,22.521817 46.653833,23.670197 L46.244835,24.711407 L47.209011,25.111777 C48.494987,25.645767 48.393323,25.680497 49.070363,24.475867 L49.070363,24.475867 Z M50.521364,21.008417 C50.806008,19.585197 50.738587,19.483847 49.211902,19.040027 C48.400745,18.804217 47.702753,18.652067 47.660803,18.701907 C47.618853,18.751707 47.520741,19.292667 47.442771,19.903937 C47.301925,21.008147 47.308119,21.017867 48.398554,21.404407 C50.058526,21.992837 50.334788,21.941297 50.521364,21.008417 L50.521364,21.008417 Z M51.0335,16.742017 C51.11702,16.123547 51.09367,15.524917 50.9816,15.411727 C50.761655,15.189587 47.506925,14.608107 47.351792,14.763237 C47.300132,14.814937 47.347192,15.380337 47.456329,16.019757 C47.644763,17.123567 47.714716,17.198327 48.840036,17.498447 C50.783573,18.016777 50.865144,17.988647 51.033504,16.742017 L51.0335,16.742017 Z M50.812051,12.508677 C50.709875,11.890217 50.60384,11.358087 50.576419,11.326167 C50.432406,11.158527 46.711674,10.640857 46.582105,10.770417 C46.498215,10.854317 46.566625,11.467217 46.734113,12.132417 C47.035386,13.328877 47.051859,13.342927 48.267382,13.439827 C51.275345,13.679617 51.020882,13.772727 50.812051,12.508677 L50.812051,12.508677 Z M49.603025,8.407637 L49.077811,7.150867 L46.989455,7.079967 L44.901098,7.009067 L45.340555,8.038087 C45.765455,9.033037 45.837173,9.075697 47.505765,9.325957 C50.395737,9.759427 50.20315,9.843747 49.603025,8.407717 L49.603025,8.407637 Z M47.800066,5.475457 C47.267643,4.480617 46.802519,4.310967 45.137263,4.504247 C44.260407,4.606017 43.542979,4.782077 43.542979,4.895487 C43.542979,5.385147 44.338986,5.673877 45.934376,5.762887 C46.874681,5.815387 47.737506,5.881227 47.851766,5.909257 C47.966026,5.937257 47.942766,5.742087 47.800066,5.475457 L47.800066,5.475457 Z M43.694794,3.018237 C43.773994,2.890087 43.266219,2.789027 42.566407,2.793657 C41.4511911,2.800657 41.3512531,2.845557 41.7573541,3.153777 C42.234358,3.515867 43.439342,3.431567 43.694794,3.018237 L43.694794,3.018237 Z M63.961409,28.729817 C57.884522,26.672587 54.074528,18.034497 55.971897,10.615857 C56.690461,7.806297 57.846298,5.767237 59.745109,3.959357 C61.031336,2.734727 61.596026,2.385137 62.568269,2.211597 C63.236702,2.092287 64.319385,1.880077 64.974229,1.740017 C65.629072,1.599957 67.117354,1.481347 68.28152,1.476427 C70.932891,1.465227 72.628762,2.183037 74.45771,4.090597 C77.106295,6.853017 78.269432,10.493677 78.309459,16.146697 C78.332059,19.338017 78.249839,20.125607 77.715633,21.835237 C76.605701,25.387387 74.863851,27.695257 72.499756,28.746057 C71.0307,29.39903 65.90942,29.38929 63.961409,28.729857 L63.961409,28.729817 Z M72.49406,27.197087 C73.080186,26.897367 73.176116,26.752927 72.890935,26.599497 C71.792258,26.008417 71.451922,26.074397 70.692904,27.025647 L69.933282,27.977647 L70.827193,27.784997 C71.318844,27.679037 72.068935,27.414477 72.49406,27.197087 L72.49406,27.197087 Z M67.229838,27.380727 C67.323438,27.229287 67.613921,27.173277 67.875364,27.256257 C68.715987,27.523057 70.698777,25.004527 71.38604,22.797007 C72.623946,18.820797 71.937644,12.729937 69.739668,8.185627 C68.265248,5.137267 66.343336,3.586717 64.031558,3.580467 C63.469117,3.579467 61.194783,4.624977 60.456381,5.224787 C58.477112,6.832577 56.990998,10.901877 56.999123,14.691487 C57.010373,19.932707 59.735397,25.125527 63.444548,26.973877 C64.852843,27.675657 66.910852,27.896857 67.229838,27.380727 L67.229838,27.380727 Z M63.009361,21.866807 C62.355116,20.808217 61.347177,13.260197 61.646792,11.663117 C61.963736,9.973657 63.328489,9.370537 64.330098,10.477307 C64.781072,10.975627 64.827028,11.524447 64.834126,16.496577 L64.841926,21.967537 L64.006861,22.048637 C63.547576,22.093237 63.098695,22.011437 63.00935,21.866847 L63.009361,21.866807 Z M74.999529,24.475867 L75.59727,23.412337 L74.659873,23.020667 C73.281095,22.444567 73.034096,22.521817 72.583,23.670197 L72.174001,24.711407 L73.138177,25.111777 C74.424153,25.645767 74.322489,25.680497 74.999529,24.475867 L74.999529,24.475867 Z M76.45053,21.008417 C76.735174,19.585197 76.667753,19.483847 75.141068,19.040027 C74.329911,18.804217 73.631919,18.652067 73.589969,18.701907 C73.548019,18.751707 73.449907,19.292667 73.371937,19.903937 C73.231091,21.008147 73.237285,21.017867 74.32772,21.404407 C75.987692,21.992837 76.263954,21.941297 76.45053,21.008417 L76.45053,21.008417 Z M76.962666,16.742017 C77.046186,16.123547 77.022836,15.524917 76.910766,15.411727 C76.69082,15.189587 73.436091,14.608107 73.280957,14.763237 C73.229297,14.814937 73.276357,15.380337 73.385494,16.019757 C73.573928,17.123567 73.643881,17.198327 74.769202,17.498447 C76.712738,18.016777 76.794309,17.988647 76.962669,16.742017 L76.962666,16.742017 Z M76.741218,12.508677 C76.639041,11.890217 76.533006,11.358087 76.505585,11.326167 C76.361572,11.158527 72.64084,10.640857 72.511271,10.770417 C72.427381,10.854317 72.495761,11.467217 72.663279,12.132417 C72.964552,13.328877 72.981025,13.342927 74.196548,13.439827 C77.204511,13.679617 76.950048,13.772727 76.741218,12.508677 L76.741218,12.508677 Z M75.532191,8.407637 L75.006977,7.150867 L72.918621,7.079967 L70.830265,7.009067 L71.269722,8.038087 C71.694621,9.033037 71.766339,9.075697 73.434931,9.325957 C76.324904,9.759427 76.132316,9.843747 75.532191,8.407717 L75.532191,8.407637 Z M73.729233,5.475457 C73.196809,4.480617 72.731685,4.310967 71.066429,4.504247 C70.189573,4.606017 69.472145,4.782077 69.472145,4.895487 C69.472145,5.385147 70.268152,5.673877 71.863542,5.762887 C72.803847,5.815387 73.666672,5.881227 73.780932,5.909257 C73.895193,5.937257 73.871932,5.742087 73.729232,5.475457 L73.729233,5.475457 Z M69.62396,3.018237 C69.70316,2.890087 69.195386,2.789027 68.495573,2.793657 C67.380357,2.800657 67.280419,2.845557 67.68652,3.153777 C68.163524,3.515867 69.368508,3.431567 69.62396,3.018237 L69.62396,3.018237 Z" id="path24"></path>
</svg>